<?xml version="1.0" encoding="UTF-8" standalone="no"?>
<!DOCTYPE svg PUBLIC "-//W3C//DTD SVG 1.1//EN"
 "http://www.w3.org/Graphics/SVG/1.1/DTD/svg11.dtd">
<!-- Generated by graphviz version 2.40.1 (20161225.0304)
 -->
<!-- Title: state transitions Pages: 1 -->
<svg width="266pt" height="270pt"
 viewBox="0.00 0.00 266.00 270.00" xmlns="http://www.w3.org/2000/svg" xmlns:xlink="http://www.w3.org/1999/xlink">
<g id="graph0" class="graph" transform="scale(1 1) rotate(0) translate(4 266)">
<title>state transitions</title>
<polygon fill="#ffffff" stroke="transparent" points="-4,4 -4,-266 262,-266 262,4 -4,4"/>
<g id="clust1" class="cluster state regular">
<title>cluster_pre_state</title>
<path fill="none" stroke="#000000" stroke-width="2" d="M20,-8C20,-8 238,-8 238,-8 244,-8 250,-14 250,-20 250,-20 250,-242 250,-242 250,-248 244,-254 238,-254 238,-254 20,-254 20,-254 14,-254 8,-248 8,-242 8,-242 8,-20 8,-20 8,-14 14,-8 20,-8"/>
<text text-anchor="start" x="103.9908" y="-235.2" font-family="Helvetica,sans-Serif" font-size="12.00" fill="#000000">pre_state</text>
</g>
<!-- pre_state -->
<!-- A -->
<g id="node2" class="node state regular">
<title>A</title>
<polygon fill="#ffffff" fill-opacity="0.003922" stroke="transparent" stroke-width="2" points="165,-216 109,-216 109,-180 165,-180 165,-216"/>
<text text-anchor="start" x="132.9986" y="-194.2" font-family="Helvetica,sans-Serif" font-size="12.00" fill="#000000">A</text>
<path fill="none" stroke="#000000" stroke-width="2" d="M121.3333,-181C121.3333,-181 152.6667,-181 152.6667,-181 158.3333,-181 164,-186.6667 164,-192.3333 164,-192.3333 164,-203.6667 164,-203.6667 164,-209.3333 158.3333,-215 152.6667,-215 152.6667,-215 121.3333,-215 121.3333,-215 115.6667,-215 110,-209.3333 110,-203.6667 110,-203.6667 110,-192.3333 110,-192.3333 110,-186.6667 115.6667,-181 121.3333,-181"/>
</g>
<!-- A&#45;&gt;A -->
<g id="edge2" class="edge transition">
<title>A&#45;&gt;A</title>
<path fill="none" stroke="#000000" d="M165.0183,-202.8247C176.888,-203.1883 187,-201.5801 187,-198 187,-195.5387 182.2205,-194.0094 175.3762,-193.4121"/>
<polygon fill="#000000" stroke="#000000" points="175.0957,-189.9049 165.0183,-193.1753 174.9356,-196.903 175.0957,-189.9049"/>
<text text-anchor="start" x="187" y="-195" font-family="Helvetica,sans-Serif" font-size="10.00" fill="#000000">not (d) &#160;&#160;</text>
</g>
<!-- B -->
<g id="node3" class="node state regular">
<title>B</title>
<polygon fill="#ffffff" fill-opacity="0.003922" stroke="transparent" stroke-width="2" points="72,-134 16,-134 16,-98 72,-98 72,-134"/>
<text text-anchor="start" x="39.9986" y="-112.2" font-family="Helvetica,sans-Serif" font-size="12.00" fill="#000000">B</text>
<path fill="none" stroke="#000000" stroke-width="2" d="M28.3333,-99C28.3333,-99 59.6667,-99 59.6667,-99 65.3333,-99 71,-104.6667 71,-110.3333 71,-110.3333 71,-121.6667 71,-121.6667 71,-127.3333 65.3333,-133 59.6667,-133 59.6667,-133 28.3333,-133 28.3333,-133 22.6667,-133 17,-127.3333 17,-121.6667 17,-121.6667 17,-110.3333 17,-110.3333 17,-104.6667 22.6667,-99 28.3333,-99"/>
</g>
<!-- A&#45;&gt;B -->
<g id="edge1" class="edge transition">
<title>A&#45;&gt;B</title>
<path fill="none" stroke="#000000" d="M116.3603,-179.8015C103.3567,-168.336 86.3969,-153.3822 72.1653,-140.8339"/>
<polygon fill="#000000" stroke="#000000" points="74.3975,-138.1359 64.582,-134.1476 69.768,-143.3864 74.3975,-138.1359"/>
<text text-anchor="start" x="96" y="-154" font-family="Helvetica,sans-Serif" font-size="10.00" fill="#000000">d &#160;&#160;</text>
</g>
<!-- B&#45;&gt;B -->
<g id="edge3" class="edge transition">
<title>B&#45;&gt;B</title>
<path fill="none" stroke="#000000" d="M72.0183,-120.8247C83.888,-121.1883 94,-119.5801 94,-116 94,-113.5387 89.2205,-112.0094 82.3762,-111.4121"/>
<polygon fill="#000000" stroke="#000000" points="82.0957,-107.9049 72.0183,-111.1753 81.9356,-114.903 82.0957,-107.9049"/>
<text text-anchor="start" x="94" y="-113" font-family="Helvetica,sans-Serif" font-size="10.00" fill="#000000">d &#160;&#160;</text>
</g>
<!-- C -->
<g id="node4" class="node state regular">
<title>C</title>
<polygon fill="#ffffff" fill-opacity="0.003922" stroke="transparent" stroke-width="2" points="175,-52 119,-52 119,-16 175,-16 175,-52"/>
<text text-anchor="start" x="142.6686" y="-30.2" font-family="Helvetica,sans-Serif" font-size="12.00" fill="#000000">C</text>
<path fill="none" stroke="#000000" stroke-width="2" d="M131.3333,-17C131.3333,-17 162.6667,-17 162.6667,-17 168.3333,-17 174,-22.6667 174,-28.3333 174,-28.3333 174,-39.6667 174,-39.6667 174,-45.3333 168.3333,-51 162.6667,-51 162.6667,-51 131.3333,-51 131.3333,-51 125.6667,-51 120,-45.3333 120,-39.6667 120,-39.6667 120,-28.3333 120,-28.3333 120,-22.6667 125.6667,-17 131.3333,-17"/>
</g>
<!-- B&#45;&gt;C -->
<g id="edge4" class="edge transition">
<title>B&#45;&gt;C</title>
<path fill="none" stroke="#000000" d="M66.859,-97.8015C81.3942,-86.2298 100.3925,-71.105 116.2432,-58.486"/>
<polygon fill="#000000" stroke="#000000" points="118.5613,-61.1143 124.2049,-52.1476 114.2014,-55.6378 118.5613,-61.1143"/>
<text text-anchor="start" x="102" y="-72" font-family="Helvetica,sans-Serif" font-size="10.00" fill="#000000">not (d) &#160;&#160;</text>
</g>
<!-- C&#45;&gt;A -->
<g id="edge5" class="edge transition">
<title>C&#45;&gt;A</title>
<path fill="none" stroke="#000000" d="M147,-52.3688C147,-59.4426 147,-67.5972 147,-75 147,-157 147,-157 147,-157 147,-161.2861 146.4778,-165.7544 145.6721,-170.0976"/>
<polygon fill="#000000" stroke="#000000" points="142.258,-169.3265 143.3898,-179.8608 149.0743,-170.92 142.258,-169.3265"/>
<text text-anchor="start" x="147" y="-113" font-family="Helvetica,sans-Serif" font-size="10.00" fill="#000000">d &#160;&#160;</text>
</g>
<!-- C&#45;&gt;A -->
<g id="edge6" class="edge transition">
<title>C&#45;&gt;A</title>
<path fill="none" stroke="#000000" d="M175.3204,-42.3694C190.0433,-48.647 205,-58.9693 205,-75 205,-157 205,-157 205,-157 205,-173.325 190.449,-183.3199 174.8092,-189.3479"/>
<polygon fill="#000000" stroke="#000000" points="173.4254,-186.12 165.0508,-192.6097 175.6446,-192.759 173.4254,-186.12"/>
<text text-anchor="start" x="205" y="-113" font-family="Helvetica,sans-Serif" font-size="10.00" fill="#000000">not (d) &#160;&#160;</text>
</g>
</g>
</svg>
